<?xml version="1.0" encoding="UTF-8"?>
<svg width="153px" height="236px" viewBox="0 0 153 236" version="1.1" xmlns="http://www.w3.org/2000/svg" xmlns:xlink="http://www.w3.org/1999/xlink">
    <!-- Generator: Sketch 56.3 (81716) - https://sketch.com -->
    <title>Shield</title>
    <desc>Created with Sketch.</desc>
    <defs>
        <path d="M0,22.2892035 L76.2276897,-3.55271368e-15 L152.455379,22.2892035 L152.455379,181.857853 C130.457024,217.782048 105.047794,235.744145 76.2276897,235.744145 C47.4075856,235.744145 21.9983557,217.782048 0,181.857853 L0,22.2892035 Z" id="path-1"></path>
        <path d="M0,22.2892035 L76.2276897,-3.55271368e-15 L152.455379,22.2892035 L152.455379,181.857853 C130.457024,217.782048 105.047794,235.744145 76.2276897,235.744145 C47.4075856,235.744145 21.9983557,217.782048 0,181.857853 L0,22.2892035 Z" id="path-3"></path>
        <linearGradient x1="0%" y1="45.3072213%" x2="98.929215%" y2="45.3072213%" id="linearGradient-5">
            <stop stop-color="#BCFF00" offset="0%"></stop>
            <stop stop-color="#E3FF53" offset="50.2264803%"></stop>
            <stop stop-color="#525252" offset="100%"></stop>
        </linearGradient>
        <path d="M6.375,27.8929369 L76.2347746,6.7787234 L146.094549,27.8929369 L146.094549,179.049821 C125.933894,213.080248 102.647302,230.095462 76.2347746,230.095462 C49.8222468,230.095462 26.5356553,213.080248 6.375,179.049821 L6.375,27.8929369 Z" id="path-6"></path>
    </defs>
    <g id="Page-1" stroke="none" stroke-width="1" fill="none" fill-rule="evenodd">
        <g id="Desktop-HD" transform="translate(-140.000000, -38.000000)">
            <g id="Shield" transform="translate(140.000000, 38.000000)">
                <g>
                    <g id="Main" transform="translate(0.000000, 0.010096)">
                        <mask id="mask-2" fill="white">
                            <use xlink:href="#path-1"></use>
                        </mask>
                        <use id="Black-Outline" fill="#000000" xlink:href="#path-1"></use>
                        <mask id="mask-4" fill="white">
                            <use xlink:href="#path-3"></use>
                        </mask>
                        <use id="White-Outline" fill="#000000" xlink:href="#path-3"></use>
                        <mask id="mask-7" fill="white">
                            <use xlink:href="#path-6"></use>
                        </mask>
                        <use id="Left-Side" stroke="#FFFFFF" stroke-width="4.125" fill="url(#linearGradient-5)" xlink:href="#path-6"></use>
                    </g>
                    <polygon id="Polygon" stroke="#FFFFFF" stroke-width="3.75" fill="#000000" transform="translate(75.937500, 113.543617) rotate(-180.000000) translate(-75.937500, -113.543617) " points="75.9375 76.8255319 110.710504 102.197105 97.4283983 143.249172 54.4466017 143.249172 41.1644961 102.197105"></polygon>
                </g>
            </g>
        </g>
    </g>
</svg>